<?xml version="1.0" standalone="no"?>
<svg version="1.0" xmlns="http://www.w3.org/2000/svg" width="400.000000pt" height="400.000000pt" viewBox="0 0 400.000000 400.000000" preserveAspectRatio="xMidYMid meet">

<g transform="translate(0.000000,400.000000) scale(0.100000,-0.100000)"
fill="#000000" stroke="none">
<path d="M2105 3666 c-60 -28 -96 -61 -155 -141 -66 -90 -69 -103 -70 -340 0
-115 -5 -227 -10 -247 -9 -33 -19 -41 -88 -75 -59 -29 -99 -60 -174 -133 -90
-89 -100 -103 -159 -225 -60 -123 -69 -136 -167 -235 -83 -84 -112 -120 -141
-180 -33 -69 -36 -82 -36 -166 0 -85 2 -95 38 -166 41 -80 106 -152 194 -211
29 -19 57 -37 62 -39 15 -5 -36 -239 -58 -262 -155 -174 -239 -567 -212 -990
6 -90 14 -185 17 -210 l7 -46 46 0 46 0 44 278 c51 331 136 823 189 1092 l38
194 -58 28 c-32 15 -78 41 -101 57 l-43 29 13 111 c7 61 16 126 21 144 8 30
75 128 91 134 3 2 24 -32 45 -75 44 -84 128 -176 188 -205 59 -28 128 -22 208
18 38 19 85 51 105 72 l36 37 -7 -65 c-6 -61 -1 -84 65 -325 132 -483 212
-930 236 -1329 3 -55 8 -121 11 -147 l6 -48 45 0 45 0 -7 87 c-50 660 -96 924
-277 1578 -25 89 -29 122 -25 175 9 117 91 377 264 838 l46 123 35 -33 c55
-52 158 -284 219 -493 105 -361 136 -492 182 -775 56 -344 65 -457 65 -800 0
-317 -11 -457 -48 -634 l-14 -66 49 0 c55 0 52 -6 73 126 l13 79 7 -43 c4 -23
5 -70 1 -102 l-7 -60 51 0 51 0 0 113 c0 135 -22 376 -56 617 -13 97 -31 259
-39 360 -22 285 -67 552 -150 895 -62 254 -162 556 -240 719 -38 80 -109 159
-182 202 l-41 25 53 50 c34 32 62 71 80 111 25 56 28 77 36 232 4 94 11 200
15 236 5 53 4 62 -7 53 -8 -5 -59 -43 -114 -84 -110 -81 -301 -234 -310 -249
-4 -6 -10 -10 -15 -10 -21 0 68 197 120 267 51 67 55 115 10 138 -42 21 -97
18 -155 -9z m40 -118 c-74 -118 -128 -268 -149 -410 l-13 -83 -8 58 c-11 86
-1 265 19 309 20 46 68 102 120 140 54 39 62 35 31 -14z m323 -268 c-4 -81 -9
-114 -26 -146 -29 -57 -66 -99 -118 -135 -35 -24 -53 -30 -87 -27 l-42 3 98
96 c53 53 97 99 97 103 0 22 -41 -3 -101 -61 -38 -36 -69 -62 -69 -57 0 5 9
38 20 74 23 77 24 90 7 90 -9 0 -26 -41 -46 -112 -18 -62 -34 -119 -36 -125
-3 -7 -15 -13 -27 -13 -13 0 -33 -3 -45 -6 -20 -6 -23 -3 -23 22 0 78 12 104
74 166 33 33 120 108 191 165 104 83 131 101 134 86 2 -10 1 -65 -1 -123z
m-165 -421 c20 -5 37 -12 37 -15 0 -2 -26 -73 -58 -157 -33 -84 -62 -161 -66
-172 -7 -18 -8 -18 -19 5 -28 56 -87 22 -87 -49 0 -36 23 -71 47 -71 7 0 13
-3 13 -7 0 -15 -105 -332 -110 -332 -3 0 -23 24 -45 52 -104 132 -296 163
-468 75 -21 -10 -41 -18 -43 -15 -2 2 24 44 59 94 35 49 76 110 90 134 15 24
27 39 27 32 0 -6 9 -15 20 -18 63 -20 105 69 56 118 -11 11 -1 35 61 138 41
68 80 130 87 137 7 7 51 24 97 37 92 26 235 33 302 14z m-585 -171 c-8 -13
-43 -70 -78 -128 -35 -58 -129 -204 -210 -325 -81 -121 -152 -229 -158 -240
-6 -12 -18 -59 -26 -105 -9 -46 -18 -85 -20 -87 -2 -3 -12 16 -21 41 -40 106
5 223 135 351 103 101 140 151 178 243 37 85 78 148 145 220 51 53 81 70 55
30z m157 -538 c41 -20 123 -95 113 -105 -13 -13 -154 -22 -215 -15 -104 14
-248 63 -237 82 8 13 90 48 139 58 57 13 152 3 200 -20z m-241 -152 c100 -27
196 -37 273 -28 37 5 70 7 72 4 9 -9 -75 -86 -124 -115 -56 -32 -119 -38 -163
-15 -34 18 -90 77 -132 140 -26 39 -29 48 -14 41 10 -4 50 -16 88 -27z m-369
-1273 l-45 -250 5 110 c5 109 27 235 60 350 10 33 20 56 21 50 2 -5 -17 -122
-41 -260z"/>
<path d="M2475 1616 c-15 -11 -20 -38 -31 -182 -44 -583 -45 -1101 -1 -1359
l12 -70 49 -3 48 -3 -7 28 c-37 149 -53 559 -36 938 11 258 26 486 36 577 5
39 2 51 -15 68 -24 24 -30 24 -55 6z"/>
</g>
</svg>
